<svg id="visual" viewBox="0 0 900 600" width="900" height="600" xmlns="http://www.w3.org/2000/svg" xmlns:xlink="http://www.w3.org/1999/xlink" version="1.1"><rect x="0" y="0" width="900" height="600" fill="#001220"></rect><defs><linearGradient id="grad1_0" x1="33.3%" y1="0%" x2="100%" y2="100%"><stop offset="20%" stop-color="#001220" stop-opacity="1"></stop><stop offset="80%" stop-color="#001220" stop-opacity="1"></stop></linearGradient></defs><defs><linearGradient id="grad2_0" x1="0%" y1="0%" x2="66.7%" y2="100%"><stop offset="20%" stop-color="#001220" stop-opacity="1"></stop><stop offset="80%" stop-color="#001220" stop-opacity="1"></stop></linearGradient></defs><g transform="translate(900, 0)"><path d="M0 378.6C-17.4 350.1 -34.8 321.6 -56.4 320.1C-78.1 318.6 -104 344.1 -126.5 347.7C-149.1 351.3 -168.2 333 -179 310C-189.8 287.1 -192.3 259.4 -206.3 245.9C-220.4 232.4 -246 233.2 -271.2 227.5C-296.4 221.9 -321.1 210 -327.9 189.3C-334.6 168.6 -323.2 139.1 -318.6 115.9C-313.9 92.8 -315.8 75.9 -327 57.7C-338.1 39.4 -358.3 19.7 -378.6 0L0 0Z" fill="#715DF2"></path></g><g transform="translate(0, 600)"><path d="M0 -378.6C23.2 -378.5 46.5 -378.4 64.2 -364.4C82 -350.4 94.3 -322.5 114.6 -314.8C134.9 -307.1 163.3 -319.6 180 -311.8C196.7 -304 201.8 -275.9 221.8 -264.3C241.7 -252.7 276.4 -257.6 290 -243.3C303.6 -229.1 296 -195.7 297.9 -172C299.8 -148.3 311.1 -134.1 324.2 -118C337.3 -101.9 352.1 -83.7 361.4 -63.7C370.8 -43.7 374.7 -21.9 378.6 0L0 0Z" fill="#715DF2"></path></g></svg>