<svg id="visual" viewBox="0 0 900 600" width="900" height="600" xmlns="http://www.w3.org/2000/svg" xmlns:xlink="http://www.w3.org/1999/xlink" version="1.1"><rect x="0" y="0" width="900" height="600" fill="#001220"></rect><defs><linearGradient id="grad1_0" x1="33.3%" y1="0%" x2="100%" y2="100%"><stop offset="20%" stop-color="#001220" stop-opacity="1"></stop><stop offset="80%" stop-color="#001220" stop-opacity="1"></stop></linearGradient></defs><defs><linearGradient id="grad2_0" x1="0%" y1="0%" x2="66.7%" y2="100%"><stop offset="20%" stop-color="#001220" stop-opacity="1"></stop><stop offset="80%" stop-color="#001220" stop-opacity="1"></stop></linearGradient></defs><g transform="translate(900, 0)"><path d="M0 378.6C-28.8 378.2 -57.7 377.9 -84.2 369.1C-110.8 360.3 -135.1 343.1 -157.1 326.2C-179 309.2 -198.7 292.6 -222 278.3C-245.3 264.1 -272.2 252.3 -290.8 231.9C-309.5 211.6 -319.7 182.6 -320.7 154.5C-321.8 126.3 -313.6 99 -321.7 73.4C-329.8 47.8 -354.2 23.9 -378.6 0L0 0Z" fill="#715DF2"></path></g><g transform="translate(0, 600)"><path d="M0 -378.6C25.1 -359.3 50.2 -339.9 75.7 -331.5C101.1 -323 126.9 -325.4 155.3 -322.5C183.8 -319.7 215 -311.5 233.2 -292.4C251.4 -273.3 256.6 -243.4 279.1 -222.6C301.6 -201.8 341.3 -190.1 341.1 -164.3C340.9 -138.4 300.7 -98.3 300.3 -68.5C299.9 -38.8 339.2 -19.4 378.6 0L0 0Z" fill="#715DF2"></path></g></svg>