<svg id="visual" viewBox="0 0 900 600" width="900" height="600" xmlns="http://www.w3.org/2000/svg" xmlns:xlink="http://www.w3.org/1999/xlink" version="1.1"><rect x="0" y="0" width="900" height="600" fill="#001220"></rect><defs><linearGradient id="grad1_0" x1="33.3%" y1="0%" x2="100%" y2="100%"><stop offset="20%" stop-color="#001220" stop-opacity="1"></stop><stop offset="80%" stop-color="#001220" stop-opacity="1"></stop></linearGradient></defs><defs><linearGradient id="grad2_0" x1="0%" y1="0%" x2="66.7%" y2="100%"><stop offset="20%" stop-color="#001220" stop-opacity="1"></stop><stop offset="80%" stop-color="#001220" stop-opacity="1"></stop></linearGradient></defs><g transform="translate(900, 0)"><path d="M0 378.6C-28.7 377.3 -57.4 376 -84.2 369.1C-111 362.2 -135.9 349.8 -163.1 338.8C-190.3 327.7 -219.9 318.2 -234.4 294C-249 269.8 -248.7 231 -255.7 203.9C-262.7 176.8 -277 161.3 -299.1 144C-321.2 126.8 -351.1 107.8 -365.6 83.4C-380.1 59.1 -379.4 29.6 -378.6 0L0 0Z" fill="#715DF2"></path></g><g transform="translate(0, 600)"><path d="M0 -378.6C23.1 -350.3 46.2 -322.1 71.7 -313.9C97.1 -305.8 124.9 -317.7 152.7 -317.1C180.5 -316.6 208.4 -303.6 223.2 -279.9C238 -256.2 239.9 -221.8 246.3 -196.4C252.6 -171 263.5 -154.8 288.3 -138.8C313.1 -122.9 351.7 -107.3 369.1 -84.2C386.4 -61.2 382.5 -30.6 378.6 0L0 0Z" fill="#715DF2"></path></g></svg>