<svg id="visual" viewBox="0 0 900 600" width="900" height="600" xmlns="http://www.w3.org/2000/svg" xmlns:xlink="http://www.w3.org/1999/xlink" version="1.1"><rect x="0" y="0" width="900" height="600" fill="#001220"></rect><defs><linearGradient id="grad1_0" x1="33.3%" y1="0%" x2="100%" y2="100%"><stop offset="20%" stop-color="#001220" stop-opacity="1"></stop><stop offset="80%" stop-color="#001220" stop-opacity="1"></stop></linearGradient></defs><defs><linearGradient id="grad2_0" x1="0%" y1="0%" x2="66.7%" y2="100%"><stop offset="20%" stop-color="#001220" stop-opacity="1"></stop><stop offset="80%" stop-color="#001220" stop-opacity="1"></stop></linearGradient></defs><g transform="translate(900, 0)"><path d="M0 378.6C-25.3 358 -50.5 337.4 -73.7 322.7C-96.8 308 -117.9 299.4 -141 292.8C-164.2 286.3 -189.4 281.9 -218.2 273.6C-247 265.4 -279.4 253.3 -284.6 227C-289.8 200.6 -267.7 159.9 -282 135.8C-296.3 111.7 -346.9 104.1 -369.1 84.2C-391.2 64.4 -384.9 32.2 -378.6 0L0 0Z" fill="#FBAE3C"></path></g><g transform="translate(0, 600)"><path d="M0 -378.6C22.2 -345.6 44.3 -312.7 69.9 -306.1C95.4 -299.5 124.4 -319.3 156.6 -325.2C188.9 -331.2 224.4 -323.3 236 -296C247.7 -268.6 235.4 -221.8 244.7 -195.2C254.1 -168.5 285.1 -162.1 301.8 -145.4C318.6 -128.6 321.1 -101.6 331.5 -75.7C341.9 -49.7 360.2 -24.9 378.6 0L0 0Z" fill="#FBAE3C"></path></g></svg>