<svg xmlns="http://www.w3.org/2000/svg" version="1.1" xmlns:xlink="http://www.w3.org/1999/xlink" xmlns:svgjs="http://svgjs.dev/svgjs" viewBox="0 0 7.658207395598772 5.731592518161729"><g transform="matrix(0.8370454239651082,0,0,0.8370454239651082,2.3169187737308974,2.6207262011291386)"><g><path d=" M -1.45339782028188 1.0964165658317104 L -0.9581516800799094 1.3145822382347032 L -0.7345696898685418 1.3009040200348096 L -0.7225401854695283 1.4975363953546286 L -0.9461221756808958 1.5112146135545221 L -1.4110808327259594 1.7881233480481291 L -1.4247590509258532 1.5645413578367615 L -1.1608385050298478 1.4241634911555978 L -1.4399027925043066 1.3170041543884614 L -1.45339782028188 1.0964165658317104 M -0.7400522095655774 0.7960378943478857 Q -0.8052548471620249 0.865318959946405 -0.8970391653079905 0.8924139584236177 Q -0.9888234834539562 0.9195089569008305 -1.0897326522055473 0.8943427163817754 Q -1.1906418209571383 0.8691764758627204 -1.2589537801574469 0.8021542688696992 Q -1.3272657393577554 0.735132061876678 -1.351814045122098 0.6434675612011147 Q -1.3763623508864404 0.5518030605255513 -1.3524060257769555 0.45574529411778675 Q -1.3282077175855562 0.358717247241257 -1.2636112117644482 0.28980033033616337 Q -1.1990147059433403 0.22088341343106987 -1.1073513793383318 0.19427355518823985 Q -1.015688052733323 0.16766369694540972 -0.914778883981732 0.19282993746446475 Q -0.813869715230141 0.21799617798351978 -0.7454367644888754 0.28453324474215835 Q -0.6770038137476099 0.3510703115007968 -0.6519703677488847 0.44285580371731725 Q -0.6269369217501596 0.5346412959338376 -0.6508932468596447 0.630699062341602 Q -0.6748495719691298 0.7267568287493666 -0.7400522095655774 0.7960378943478857 M -0.8463530399376207 0.4598227348707823 Q -0.8833705188438616 0.40575836346570626 -0.9629335172826161 0.38591575074875906 Q -1.0444370766589013 0.3655891718679838 -1.1020219434572769 0.3960601927864458 Q -1.1596068102556525 0.42653121370490776 -1.1777555413992016 0.4993022488623051 Q -1.196146255624665 0.5730435644884678 -1.1594929254118496 0.6265018041182042 Q -1.1228395951990342 0.6799600437479405 -1.041336035822749 0.7002866226287158 Q -0.9608027569152293 0.720371218427577 -0.9033388816578107 0.6903853377434978 Q -0.8458750064003923 0.6603994570594185 -0.8274842921749289 0.5866581414332557 Q -0.8093355610313797 0.5138871062758583 -0.8463530399376207 0.4598227348707823 M -0.778654784337204 -0.7421879106736948 L -0.18066162269481045 -0.368785743260416 L -0.28447272172034616 -0.202535162151325 L -0.5245182036278602 -0.3524256775810525 L -0.6511041866232837 -0.14970175469802827 L -0.4110587047157697 0.00018876073169921126 L -0.5148698037413054 0.16643934184079018 L -1.112862965383699 -0.20696282557248857 L -1.0090518663581634 -0.37321340668157954 L -0.7842742949606678 -0.23285656361134 L -0.6576883119652442 -0.4355804864943642 L -0.8824658833627397 -0.5759373295646038 L -0.778654784337204 -0.7421879106736948 M 0.18071254328667646 -0.8583984968703486 L -0.009669417253264895 -0.6963654474607661 L 0.03592772747307199 -0.5841607221021365 L -0.1209470080118397 -0.4506454893886406 L -0.38216755191180274 -1.154092592904326 L -0.21006225958369573 -1.3005704695705886 L 0.4418220673442269 -0.9296151834433666 L 0.2841858040171555 -0.7954518185322321 L 0.18071254328667646 -0.8583984968703486 M 0.04617784937509842 -0.9408691955100352 L -0.15947240769058302 -1.0652394965019487 L -0.06881285479102614 -0.8430012336666475 L 0.04617784937509842 -0.9408691955100352 M 1.1347998496334244 -1.2270333131213573 L 0.9537653688771777 -1.151916625379444 L 0.5616940706746558 -1.4158050433249634 L 0.7126939429721755 -1.0518887911925083 L 0.5316594622159287 -0.9767721034505948 L 0.2614693353891486 -1.6279420469870947 L 0.44250381614539536 -1.7030587347290083 L 0.8364913563821497 -1.4345520902335842 L 0.6835752420503975 -1.8030865689159437 L 0.8646097228066443 -1.8782032566578573 L 1.1347998496334244 -1.2270333131213573 M 2.046575142054424 -1.5989488802148106 Q 2.0835594655216787 -1.5518250028523797 2.0841838947536475 -1.490828198935008 Q 2.08510518378442 -1.400832914466755 2.023630496045951 -1.349200920824657 Q 1.962155808307481 -1.2975689271825588 1.8501616765247664 -1.2964224341664858 L 1.5011799623089852 -1.2928498800360437 L 1.4939631982345964 -1.9978129417040256 L 1.8319454887931466 -2.0012728938418176 Q 1.9399398301550503 -2.0023784406787453 2.0019279620247685 -1.9550105031333718 Q 2.063916093894487 -1.9076425655879983 2.064806673290901 -1.8206471239353539 Q 2.065441339067656 -1.7586503724127796 2.033367858507199 -1.716819859091306 Q 2.0012943779467416 -1.6749893457698324 1.9474507554375853 -1.6594373582733264 Q 2.009590818587169 -1.6460727575772418 2.046575142054424 -1.5989488802148106 M 1.6928191613945303 -1.7198339750253662 L 1.7918139743096084 -1.7208473929592167 Q 1.8658100970946165 -1.7216048972734077 1.8651856678626482 -1.7826017011907793 Q 1.864540765541107 -1.8455984003185564 1.7905446427560991 -1.8448408960043654 L 1.6915498298410208 -1.8438274780705148 L 1.6928191613945303 -1.7198339750253662 M 1.882907802853864 -1.516769186378627 Q 1.8825802334207002 -1.548767509745117 1.8629072338578772 -1.5655670064102307 Q 1.843234234295054 -1.5823665030753442 1.807236120507753 -1.581997987463035 L 1.6942420411198353 -1.5808412579021756 L 1.6955523188524904 -1.4528479644362158 L 1.8095463458456107 -1.4540149305418617 Q 1.8835424686306186 -1.4547724348560527 1.882907802853864 -1.516769186378627 M 2.3687878169569894 -1.2798860466089874 Q 2.3025076556708997 -1.3481369822794231 2.2795657748634577 -1.4410464549128266 Q 2.256623894056016 -1.53395592754623 2.2863005924929913 -1.633631870330238 Q 2.3159772909299665 -1.733307813114246 2.3860023952191476 -1.7985380573977783 Q 2.4560274995083287 -1.8637683016813107 2.5487028012311512 -1.8841714497370359 Q 2.6413781029539734 -1.9045745977927613 2.7362619331041347 -1.8763246637037176 Q 2.8321041857810654 -1.8477893767450877 2.8980478122385636 -1.7801603287728298 Q 2.9639914386960617 -1.712531280800572 2.986454108240119 -1.6197644846019617 Q 3.008916777784176 -1.5269976884033514 2.9792400793472007 -1.4273217456193434 Q 2.9495633809102255 -1.3276458028353355 2.8800174878844294 -1.26227288211701 Q 2.8104715948586327 -1.1968999613986844 2.7176536167010172 -1.1760176020795745 Q 2.6248356385434017 -1.1551352427604644 2.5299518083932404 -1.183385176849508 Q 2.4350679782430786 -1.211635110938552 2.3687878169569894 -1.2798860466089874 M 2.7094413906898382 -1.3709664654872418 Q 2.765115061214032 -1.4055163194719338 2.7885139965201087 -1.484106966667017 Q 2.8124836375653577 -1.564614458915639 2.7846318718258285 -1.6235108012909543 Q 2.756780106086299 -1.6824071436662698 2.684898416578601 -1.7038086088852422 Q 2.6120583045441337 -1.725495426973801 2.557006521718118 -1.6912821078177005 Q 2.5019547388921017 -1.6570687886616 2.4779850978468527 -1.576561296412978 Q 2.45430080967119 -1.4970122266911257 2.4816733641473347 -1.4382585607506033 Q 2.5090459186234795 -1.379504894810081 2.5818860306579468 -1.3578180767215222 Q 2.6537677201656447 -1.3364166115025498 2.7094413906898382 -1.3709664654872418 M 3.497225721317098 -1.527422199355644 L 3.1484429402460683 -0.9147431874510755 L 2.97810948445416 -1.011709747862312 L 3.3268922655251894 -1.6243887597668807 L 3.497225721317098 -1.527422199355644 M 3.545124668702559 -0.6095328044421158 L 3.6115618618273766 -0.89725854081218 L 3.595785976818276 -0.9111193291079311 L 3.42417621696612 -0.7157988480428741 L 3.276934623547846 -0.845166205469884 L 3.7422610877623463 -1.374785202203981 L 3.9743919671819716 -1.1708336029950723 Q 4.038246739837856 -1.1147304122741752 4.063098357019394 -1.0536268352638045 Q 4.087949974200931 -0.9925232582534338 4.076495019583875 -0.9340336522133756 Q 4.065040064966821 -0.8755440461733175 4.022797662541675 -0.8274651585265341 Q 3.975274959813385 -0.7733764099239029 3.9096292255287226 -0.7585057149089589 Q 3.8439834912440602 -0.7436350198940149 3.771708948791968 -0.7765195225258132 L 3.7096446123688955 -0.464984583643569 L 3.545124668702559 -0.6095328044421158 M 3.6842310068959256 -1.0117845001183836 L 3.7571005709855814 -0.9477608589427715 Q 3.787149875764821 -0.9213593574270551 3.8147152413744063 -0.9224320264393358 Q 3.842280606983991 -0.9235046954516164 3.866041958348136 -0.950549069752932 Q 3.8884832346364946 -0.9760909788152856 3.885953697926046 -1.0042707844219696 Q 3.8834241612155975 -1.0324505900286534 3.854126089055839 -1.0581920540064769 L 3.7812565249661834 -1.122215695182089 L 3.6842310068959256 -1.0117845001183836 M 3.907431160525465 -0.2636655419415789 Q 3.9034731331173025 -0.3587212309824577 3.9482627992984214 -0.4432930099833981 Q 3.9930524654795407 -0.5278647889843385 4.081590478157899 -0.5824268665746103 Q 4.170128490836258 -0.636988944164882 4.265807787077534 -0.6389819998023536 Q 4.361487083318811 -0.640975055439825 4.444192862388013 -0.5944481373326015 Q 4.526898641457215 -0.547921219225378 4.5788375422402625 -0.4636398417719405 Q 4.631301078384754 -0.3785071372735189 4.635422451634687 -0.28413942943585474 Q 4.639543824884619 -0.18977172159819056 4.594491841022777 -0.1056256061197422 Q 4.549439857160936 -0.02147949064129384 4.460901844482577 0.03308258694897792 Q 4.372363831804218 0.08764466453924968 4.276946853243665 0.0900633836992133 Q 4.18152987468311 0.0924821028591768 4.098398432091416 0.04621750243267575 Q 4.015266989499722 -0.0000470979938254068 3.963328088716674 -0.0843284754472628 Q 3.911389187933627 -0.16860985290070019 3.907431160525465 -0.2636655419415789 M 4.222153926439251 -0.10463698911040986 Q 4.286690589866332 -0.09331139536439759 4.356499407555038 -0.1363314950028811 Q 4.428010879333712 -0.18040086536425445 4.446478602792592 -0.24287840685114648 Q 4.464946326251472 -0.3053559483380386 4.425598674143104 -0.3692054767118548 Q 4.38572638667329 -0.43390633213065516 4.321877704449424 -0.4450685800348978 Q 4.258029022225557 -0.45623082793914044 4.186517550446883 -0.4121614575777671 Q 4.115857405713194 -0.3686167225778387 4.09712736457359 -0.3065648446134387 Q 4.078397323433988 -0.24451296664903877 4.118269610903802 -0.17981211123023838 Q 4.15761726301217 -0.11596258285642219 4.222153926439251 -0.10463698911040986 M 4.928894643545469 0.35348245395363864 L 4.532070155325044 0.45253458946114916 Q 4.476766987040047 0.4663389213044941 4.453107628742042 0.49955766247460187 Q 4.429448270444037 0.5327764036447097 4.442526058506153 0.5851688788620762 Q 4.455603846568269 0.6375613540794428 4.492826108439663 0.6566139974964968 Q 4.5300483703110555 0.6756666409135508 4.58438130757351 0.6621044903306154 L 4.981205795793935 0.5630523548231049 L 5.028673322834209 0.7532176352416946 L 4.631848834613784 0.8522697707492051 Q 4.537736425427033 0.8757613530089325 4.4613461687059885 0.8525712974226907 Q 4.384955911984945 0.8293812418364488 4.334409162848309 0.7693352082312389 Q 4.283862413711673 0.709289174626029 4.263034825316451 0.6258493066872601 Q 4.242207236921228 0.5424094387484912 4.259332972121345 0.4685635912426531 Q 4.276458707321462 0.3947177437368151 4.333110438328673 0.34089552366102766 Q 4.389762169335886 0.28707330358524025 4.48484480954518 0.2633395400651033 L 4.881669297765605 0.16428740455759278 L 4.928894643545469 0.35348245395363864 M 4.336164291829378 1.5075546288158908 L 4.542220226400374 1.3814160073390676 L 4.349776278295611 1.2539196276341864 L 4.3617269593269885 1.0312400793526115 L 4.709935977145208 1.2792571753562354 L 5.066142596038923 1.0610328763968666 L 5.053763191024356 1.2917009286526684 L 4.852914433428847 1.4141132506318708 L 5.0405263380434135 1.538345988856924 L 5.028575657012035 1.761025537138499 L 4.68619724568079 1.5163256731126016 L 4.323784886814811 1.7382226810716923 L 4.336164291829378 1.5075546288158908" fill="#404040" fill-rule="nonzero"></path></g><g transform="matrix(1,0,0,1,0,0)" clip-path="url(#SvgjsClipPath58146)"><g clip-path="url(#SvgjsClipPath581427ed2dc09-330b-4394-a8cf-cde77ad4e453)"><path d=" M 3.3044395119505707 8.023253589452153e-17 L 0.3089126756250006 8.023253589452153e-17 C 0.13838547987745073 8.023253589452153e-17 0 0.13838547987745076 0 0.30911538254416565 L 0 0.48085881980670525 L 3.6133268492106754 0.48085881980670525 L 3.6133268492106754 0.30911538254416565 C 3.6133268492106754 0.13838547987745076 3.4749413693332247 8.023253589452153e-17 3.3044141735856747 8.023253589452153e-17 Z" fill="#404040" transform="matrix(1,0,0,1,0,0)" fill-rule="nonzero"></path></g><g clip-path="url(#SvgjsClipPath581427ed2dc09-330b-4394-a8cf-cde77ad4e453)"><path d=" M 0.000012669182447789563 0.5520976327107523 L 0.000012669182447789563 2.179340095490177 C 0.000012669182447789563 2.3498672912377265 0.1383981490598985 2.488252771115177 0.3089253448074483 2.488252771115177 L 3.3044395119505707 2.488252771115177 C 3.4749667076981203 2.488252771115177 3.613352187575571 2.3498672912377265 3.613352187575571 2.179340095490177 L 3.613352187575571 0.5520976327107523 L 0.000012669182447789563 0.5520976327107523 Z" fill="#404040" transform="matrix(1,0,0,1,0,0)" fill-rule="nonzero"></path></g><g clip-path="url(#SvgjsClipPath581427ed2dc09-330b-4394-a8cf-cde77ad4e453)"><path d=" M 0.45692673416278834 0.25893275086838213 C 0.45692673416278834 0.2983188463866972 0.4249980016823696 0.3302475788671159 0.3856119061640544 0.3302475788671159 C 0.3462258106457393 0.3302475788671159 0.31429707816532054 0.2983188463866972 0.31429707816532054 0.25893275086838213 C 0.31429707816532054 0.21954665535006707 0.3462258106457393 0.18761792286964835 0.3856119061640544 0.18761792286964835 C 0.4249980016823696 0.18761792286964835 0.45692673416278834 0.21954665535006707 0.45692673416278834 0.25893275086838213 Z" fill="#bab9b4" transform="matrix(1,0,0,1,0,0)" fill-rule="nonzero"></path></g><g clip-path="url(#SvgjsClipPath581427ed2dc09-330b-4394-a8cf-cde77ad4e453)"><path d=" M 0.7933442048819886 0.18761792286964835 C 0.753955716651741 0.18761792286964835 0.7220293768832549 0.21954426263813467 0.7220293768832549 0.25893275086838213 C 0.7220293768832549 0.29832123909862956 0.7539557166517412 0.3302475788671159 0.7933442048819886 0.3302475788671159 C 0.8327326931122361 0.3302475788671159 0.8646590328807224 0.29832123909862956 0.8646590328807224 0.25893275086838213 C 0.8646590328807224 0.21954426263813467 0.8327326931122361 0.18761792286964835 0.7933442048819886 0.18761792286964835 Z" fill="#bab9b4" transform="matrix(1,0,0,1,0,0)" fill-rule="nonzero"></path></g><g clip-path="url(#SvgjsClipPath581427ed2dc09-330b-4394-a8cf-cde77ad4e453)"><path d=" M 1.2724040007811046 0.25893275086838213 C 1.2724040007811046 0.2983188463866972 1.2404752683006859 0.3302475788671159 1.201089172782371 0.3302475788671159 C 1.1617030772640558 0.3302475788671159 1.129774344783637 0.2983188463866972 1.129774344783637 0.25893275086838213 C 1.129774344783637 0.21954665535006707 1.1617030772640558 0.18761792286964835 1.201089172782371 0.18761792286964835 C 1.2404752683006859 0.18761792286964835 1.2724040007811046 0.21954665535006707 1.2724040007811046 0.25893275086838213 Z" fill="#bab9b4" transform="matrix(1,0,0,1,0,0)" fill-rule="nonzero"></path></g><g clip-path="url(#SvgjsClipPath581427ed2dc09-330b-4394-a8cf-cde77ad4e453)"><path d=" M 1.3323925796714948 2.0337838583472636 L 1.3323925796714948 1.675626070547618 L 1.1176499371810809 1.507353989275779 L 1.3323925796714948 1.3390819080039396 L 1.3323925796714948 0.9811014887585632 L 0.6602924508150669 1.507353989275779 L 1.3323925796714948 2.0337838583472636 Z" fill="#bab9b4" transform="matrix(1,0,0,1,0,0)" fill-rule="nonzero"></path></g><g clip-path="url(#SvgjsClipPath581427ed2dc09-330b-4394-a8cf-cde77ad4e453)"><path d=" M 2.280946938721628 0.9811014887585632 L 2.280946938721628 1.3390819080039396 L 2.4956769120295945 1.507353989275779 L 2.280946938721628 1.675626070547618 L 2.280946938721628 2.0337838583472636 L 2.9530597367605043 1.507353989275779 L 2.280946938721628 0.9811014887585632 Z" fill="#bab9b4" transform="matrix(1,0,0,1,0,0)" fill-rule="nonzero"></path></g><g clip-path="url(#SvgjsClipPath581427ed2dc09-330b-4394-a8cf-cde77ad4e453)"><path d=" M 2.1401543141790933 0.7771403205312374 L 1.666858996293732 2.2377450265745904 L 1.4731978733964775 2.2377450265745904 L 1.9466958982010039 0.7771403205312374 L 2.1401543141790933 0.7771403205312374 Z" fill="#bab9b4" transform="matrix(1,0,0,1,0,0)" fill-rule="nonzero"></path></g></g><g transform="matrix(-0.5452803958481282,-0.8382537145182887,0.8382537145182887,-0.5452803958481282,-3.332565109128,3.0713503829563527)"><g clip-path="url(#SvgjsClipPath58147)"><path d=" M -0.8332392848707754 2.539072056623535 C -0.8270874869397409 2.539072056623535 -0.8239621469397409 2.5348734573131906 -0.8182014331466374 2.5272562048993974 L -0.7603931979742237 2.4500159766235354 C -0.7572678579742237 2.4459140373131905 -0.7558035145259479 2.442008751106294 -0.7558035145259479 2.4378090407614663 C -0.7558035145259479 2.4336104414511217 -0.7572678579742237 2.429704044209742 -0.7603931979742237 2.4256032159338803 L -0.8182014331466374 2.348362432140777 C -0.8239621469397409 2.3407458463476734 -0.8270874869397409 2.3365469137269836 -0.8332392848707754 2.3365469137269836 C -0.8394888538362927 2.3365469137269836 -0.8426141938362927 2.3407458463476734 -0.848374907629396 2.348362432140777 L -0.9061834761121547 2.4256032159338803 C -0.9093082605949133 2.429704044209742 -0.9107730484569823 2.4336104414511217 -0.9107730484569823 2.4378090407614663 C -0.9107730484569823 2.442008751106294 -0.9093082605949133 2.4459140373131905 -0.9061834761121547 2.4500159766235354 L -0.848374907629396 2.5272562048993974 C -0.8426141938362927 2.5348734573131906 -0.8394888538362927 2.539072056623535 -0.8332392848707754 2.539072056623535 Z" fill="#404040" transform="matrix(1,0,0,1,0,0)" fill-rule="nonzero"></path></g></g><g transform="matrix(0.5452803958481282,-0.8382537145182887,-0.8382537145182887,-0.5452803958481282,4.066929091342567,7.497188127305339)"><g clip-path="url(#SvgjsClipPath58148)"><path d=" M 4.446591472446346 2.539072056623535 C 4.452743270377381 2.539072056623535 4.45586861037738 2.5348734573131906 4.461629324170484 2.5272562048993974 L 4.519437559342898 2.4500159766235354 C 4.522562899342898 2.4459140373131905 4.524027242791174 2.442008751106294 4.524027242791174 2.4378090407614663 C 4.524027242791174 2.4336104414511217 4.522562899342898 2.429704044209742 4.519437559342898 2.4256032159338803 L 4.461629324170484 2.348362432140777 C 4.45586861037738 2.3407458463476734 4.452743270377381 2.3365469137269836 4.446591472446346 2.3365469137269836 C 4.440341903480829 2.3365469137269836 4.4372165634808285 2.3407458463476734 4.431455849687725 2.348362432140777 L 4.373647281204967 2.4256032159338803 C 4.3705224967222085 2.429704044209742 4.369057708860139 2.4336104414511217 4.369057708860139 2.4378090407614663 C 4.369057708860139 2.442008751106294 4.3705224967222085 2.4459140373131905 4.373647281204967 2.4500159766235354 L 4.431455849687725 2.5272562048993974 C 4.4372165634808285 2.5348734573131906 4.440341903480829 2.539072056623535 4.446591472446346 2.539072056623535 Z" fill="#404040" transform="matrix(1,0,0,1,0,0)" fill-rule="nonzero"></path></g></g></g><defs><clipPath id="SvgjsClipPath58146"><path d=" M 0 0 h 3.613352187575571 v 2.4882527711151767 h -3.613352187575571 Z"></path></clipPath><clipPath id="SvgjsClipPath581427ed2dc09-330b-4394-a8cf-cde77ad4e453"><path d=" M 0 0 L 3.613352187575571 0 L 3.613352187575571 2.4882527711151767 L 0 2.4882527711151767 Z"></path></clipPath><clipPath id="SvgjsClipPath58147"><path d=" M -0.9887841124569823 2.2784678083476733 h 0.31108965517241377 v 0.3222 h -0.31108965517241377 Z"></path></clipPath><clipPath id="SvgjsClipPath58148"><path d=" M 4.291046644860139 2.2784678083476733 h 0.31108965517241377 v 0.3222 h -0.31108965517241377 Z"></path></clipPath></defs></svg>